<svg xmlns="http://www.w3.org/2000/svg" xmlns:xlink="http://www.w3.org/1999/xlink" aria-hidden="true" focusable="false" width="1em" height="1em" style="-ms-transform: rotate(360deg); -webkit-transform: rotate(360deg); transform: rotate(360deg);" preserveAspectRatio="xMidYMid meet" viewBox="0 0 36 36"><path class="clr-i-outline clr-i-outline-path-1" d="M18 6a12 12 0 1 0 12 12A12 12 0 0 0 18 6zm0 22a10 10 0 1 1 10-10a10 10 0 0 1-10 10z" fill="#fed700"/><path class="clr-i-outline clr-i-outline-path-2" d="M18 20.07a1.3 1.3 0 0 1-1.3-1.3v-6a1.3 1.3 0 1 1 2.6 0v6a1.3 1.3 0 0 1-1.3 1.3z" fill="#fed700"/><circle class="clr-i-outline clr-i-outline-path-3" cx="17.95" cy="23.02" r="1.5" fill="#fed700"/></svg>